# xmcd CD database file generated by MAGIX-FreeDB-MP3_Maker_15 v2.0beta1
# 
# Track frame offsets:
#      182
#      13257
#      23330
#      32330
#      42315
#      52050
#      67005
#      80307
#      95380
#      103865
#      116310
#      127082
#      141347
#      153900
#      165477
#      176892
# 
# Disc length: 2554 seconds
# 
# Revision: 0 
# Processed by: cddbd v1.5.2PL0 Copyright (c) Steve Scherf et al.
# Submitted via: MAGIX-FreeDB-MP3_Maker_15 v2.0beta1
# 
DISCID=cf09f810
DTITLE=Doris Day - Doris Day - When I Fall In Love Vol. 3
DYEAR=1993
DGENRE=
TTITLE0=Doris Day - By The Light Of The Silvery Moon
TTITLE1=Doris Day - Send Me No Flowers
TTITLE2=Doris Day - Zip-A-dee-Doo-dah
TTITLE3=Doris Day - Tunnel Of Love
TTITLE4=Doris Day - Do Not Disturb
TTITLE5=Doris Day - The More I See You
TTITLE6=Doris Day - When I Fall In Love
TTITLE7=Doris Day - It's Been A Long Long Time
TTITLE8=Doris Day - Twinkle Lullaby
TTITLE9=Doris Day - Everybody Loves A Lover
TTITLE10=Doris Day - Shanghai
TTITLE11=Doris Day - Tea For Two
TTITLE12=Doris Day - Again
TTITLE13=Doris Day - Perhaps,Perhaps, Perhaps
TTITLE14=Doris Day - Moonlight Bay
TTITLE15=Doris Day - Three Coins In The Foundation
EXTD=
EXTT0=
EXTT1=
EXTT2=
EXTT3=
EXTT4=
EXTT5=
EXTT6=
EXTT7=
EXTT8=
EXTT9=
EXTT10=
EXTT11=
EXTT12=
EXTT13=
EXTT14=
EXTT15=
PLAYORDER=
